# Blender v2.91.0 OBJ File: 'mini_screen.blend'
# www.blender.org
mtllib mini_screen.mtl
o Cube
v 0.037169 0.864083 -0.729260
v 0.037169 0.008085 -0.729260
v 0.037169 0.864083 0.729260
v 0.037169 0.008085 0.729260
v -0.037169 0.864083 -0.729260
v -0.037169 0.008085 -0.729260
v -0.037169 0.864083 0.729260
v -0.037169 0.008085 0.729260
vt 0.875000 0.500000
vt 0.625000 0.750000
vt 0.625000 0.500000
vt 0.375000 1.000000
vt 0.375000 0.750000
vt 0.999900 0.999900
vt 0.000100 0.000100
vt 0.999900 0.000100
vt 0.375000 0.500000
vt 0.125000 0.750000
vt 0.125000 0.500000
vt 0.000100 0.000100
vt 0.999900 0.999900
vt 0.000100 0.999900
vt 0.625000 0.250000
vt 0.375000 0.250000
vt 0.875000 0.750000
vt 0.625000 1.000000
vt 0.000100 0.999900
vt 0.999900 0.000100
vn 0.0000 1.0000 0.0000
vn 0.0000 0.0000 1.0000
vn -1.0000 0.0000 0.0000
vn 0.0000 -1.0000 0.0000
vn 1.0000 0.0000 0.0000
vn 0.0000 0.0000 -1.0000
usemtl Material
s off
f 5/1/1 3/2/1 1/3/1
f 3/2/2 8/4/2 4/5/2
f 7/6/3 6/7/3 8/8/3
f 2/9/4 8/10/4 6/11/4
f 1/12/5 4/13/5 2/14/5
f 5/15/6 2/9/6 6/16/6
f 5/1/1 7/17/1 3/2/1
f 3/2/2 7/18/2 8/4/2
f 7/6/3 5/19/3 6/7/3
f 2/9/4 4/5/4 8/10/4
f 1/12/5 3/20/5 4/13/5
f 5/15/6 1/3/6 2/9/6
