# Blender v2.91.0 OBJ File: ''
# www.blender.org
mtllib parking.mtl
o Cube.002
v -2.453329 27.347593 30.592180
v -17.560453 27.347609 -14.245166
v -2.453329 27.347609 -14.245166
v -17.560453 -1.142755 30.592173
v -2.453329 -1.142755 30.592173
v -17.560453 -1.142741 -14.245175
v -17.560453 27.347593 30.592180
v 32.378246 -1.142741 -14.245175
v -2.453329 -1.142741 -14.245175
v 32.378246 -1.142755 30.592173
v 32.378246 27.347609 -14.245166
v -17.560453 27.347620 -44.953327
v 32.378246 27.347593 30.592180
v -2.453329 -1.142731 -44.953335
v -17.560453 -1.142731 -44.953335
v -2.453329 27.347620 -44.953327
vt 0.445186 0.735426
vt 0.057497 0.110398
vt 0.057497 0.735426
vt 0.173881 0.511251
vt 0.341567 0.985370
vt 0.341567 0.511251
vt 0.580644 0.486237
vt 0.052224 0.989634
vt 0.052224 0.486237
vt 0.979875 0.035908
vt 0.313875 0.812750
vt 0.313875 0.035908
vt 0.595590 0.472427
vt 0.046593 0.996213
vt 0.046593 0.472427
vt 0.651237 0.925849
vt 0.228853 0.503465
vt 0.651237 0.503465
vt 0.007582 0.044807
vt 0.409194 0.990194
vt 0.409194 0.044807
vt 0.000000 0.000000
vt 0.224397 1.000000
vt 0.000000 1.000000
vt 0.728191 0.985370
vt 0.728191 0.511251
vt 0.599054 0.998245
vt 0.081303 0.480494
vt 0.599054 0.480494
vt 0.551557 0.983120
vt 0.037331 0.468894
vt 0.551557 0.468894
vt 0.942548 0.486237
vt 0.580644 0.989634
vt 0.245383 0.510288
vt 0.655091 0.919996
vt 0.245383 0.919996
vt 0.327644 1.000000
vt 0.000000 0.000000
vt 0.327644 0.000000
vt 0.445186 0.110398
vt 0.173881 0.985370
vt 0.979875 0.812750
vt 0.595590 0.996213
vt 0.228853 0.925849
vt 0.007582 0.990194
vt 0.224397 0.000000
vt 0.081303 0.998245
vt 0.037331 0.983120
vt 0.942548 0.989634
vt 0.655091 0.510288
vt 0.000000 1.000000
vn 0.0000 -1.0000 -0.0000
vn 0.0000 0.0000 -1.0000
vn 1.0000 -0.0000 0.0000
vn 0.0000 1.0000 0.0000
vn -1.0000 -0.0000 0.0000
vn 0.0000 -0.0000 1.0000
usemtl Material.001
s 1
f 1/1/1 2/2/1 3/3/1
f 4/4/2 1/5/2 5/6/2
f 6/7/3 7/8/3 4/9/3
f 5/10/4 8/11/4 9/12/4
f 10/13/5 11/14/5 8/15/5
f 8/16/6 3/17/6 9/18/6
f 12/19/1 3/20/1 2/21/1
f 4/22/4 9/23/4 6/24/4
f 5/6/2 13/25/2 10/26/2
f 13/27/1 3/28/1 11/29/1
f 14/30/6 12/31/6 15/32/6
f 15/33/3 2/34/3 6/7/3
f 16/35/5 9/36/5 3/37/5
f 14/38/4 6/39/4 9/40/4
f 1/1/1 7/41/1 2/2/1
f 4/4/2 7/42/2 1/5/2
f 6/7/3 2/34/3 7/8/3
f 5/10/4 10/43/4 8/11/4
f 10/13/5 13/44/5 11/14/5
f 8/16/6 11/45/6 3/17/6
f 12/19/1 16/46/1 3/20/1
f 4/22/4 5/47/4 9/23/4
f 5/6/2 1/5/2 13/25/2
f 13/27/1 1/48/1 3/28/1
f 14/30/6 16/49/6 12/31/6
f 15/33/3 12/50/3 2/34/3
f 16/35/5 14/51/5 9/36/5
f 14/38/4 15/52/4 6/39/4
o Cube_Cube.001
v -2.760941 -1.175094 -24.274433
v -2.760941 -1.175094 -24.553194
v -2.760941 5.314149 -24.553194
v -2.760941 5.314149 -24.274433
v -2.857882 -1.175094 -24.553194
v -2.857882 5.314149 -24.553194
v -8.178397 5.314148 -18.379417
v -8.416739 5.314148 -18.379417
v -8.416739 5.314148 -18.063951
v -8.178397 5.314148 -18.063951
v -2.857882 -1.175095 -18.063951
v -2.760941 -1.175095 -18.063951
v -2.760941 5.314148 -18.063951
v -2.857882 5.314148 -18.063951
v -2.760941 -1.175095 -18.379417
v -2.857882 -1.175095 -18.379417
v -2.857882 5.314148 -18.379417
v -2.760941 5.314148 -18.379417
v -2.857882 5.314149 -24.274433
v -2.857882 -1.175094 -24.274433
v -8.178397 -1.175095 -18.063951
v -8.416739 -1.175095 -18.063951
v -8.416739 -1.175095 -18.379417
v -8.178397 -1.175095 -18.379417
v -8.416739 -1.175094 -24.553194
v -8.416739 -1.175094 -24.274433
v -8.416739 5.314149 -24.274433
v -8.416739 5.314149 -24.553194
v -8.178397 -1.175094 -24.553194
v -8.178397 5.314149 -24.553194
v -8.178397 5.314149 -24.274433
v -8.178397 -1.175094 -24.274433
v -8.416739 0.879723 -24.099751
v -8.416739 3.716940 -24.099751
v -8.416739 3.716939 -18.554100
v -8.416739 0.879722 -18.554100
v -8.178397 3.716939 -18.554100
v -8.178397 0.879722 -18.554100
v -8.178397 0.879723 -24.099751
v -8.178397 3.716940 -24.099751
v -5.415714 7.744081 -19.327383
v -7.517680 7.744081 -21.429350
v -3.518596 7.744081 -21.224501
v -5.620562 7.744081 -23.326468
vt 0.532455 0.377115
vt 0.257336 0.944090
vt 0.521041 0.378704
vt 0.337827 0.393384
vt 0.110214 0.917646
vt 0.233681 0.392997
vt 0.617399 0.541315
vt 0.594386 0.518569
vt 0.594386 0.541315
vt 0.030983 0.392997
vt 0.029366 0.918033
vt 0.039699 0.393384
vt 0.030300 0.427661
vt 0.038514 0.453554
vt 0.029798 0.453167
vt 0.080662 0.518569
vt 0.071302 0.541315
vt 0.080662 0.541315
vt 0.080662 0.966358
vt 0.071302 0.986458
vt 0.080662 0.986458
vt 0.071302 0.966358
vt 0.080662 0.986458
vt 0.071302 0.986458
vt 0.617399 0.518569
vt 0.594386 0.541315
vt 0.594386 0.518569
vt 0.015993 0.977691
vt 0.279701 0.412305
vt 0.003076 0.979489
vt 0.266784 0.414103
vt 0.907994 0.550553
vt 0.610124 0.975596
vt 0.907994 0.975596
vt 0.029127 0.930160
vt 0.020411 0.929773
vt 0.321443 0.404256
vt 0.254141 0.929256
vt 0.542072 0.404607
vt 0.330791 0.398977
vt 0.245563 0.957260
vt 0.445222 0.386375
vt 0.411210 0.373476
vt 0.081696 0.978879
vt 0.205764 0.428385
vt 0.381241 0.397091
vt 0.509080 0.920788
vt 0.467492 0.396140
vt 0.807468 0.895986
vt 0.632009 0.742742
vt 0.632009 0.895986
vt 0.529170 0.940215
vt 0.518074 0.414616
vt 0.507740 0.939264
vt 0.617399 0.955543
vt 0.594386 0.487655
vt 0.594386 0.955543
vt 0.528931 0.952343
vt 0.507058 0.973929
vt 0.507502 0.951391
vt 0.617399 0.487655
vt 0.594386 0.955543
vt 0.594386 0.487655
vt 0.518074 0.414616
vt 0.029366 0.918033
vt 0.039699 0.393384
vt 0.517391 0.449280
vt 0.039016 0.428048
vt 0.953035 0.981529
vt 0.571243 0.563343
vt 0.571243 0.981529
vt 0.028683 0.952698
vt 0.507740 0.939264
vt 0.039699 0.393384
vt 0.029366 0.918033
vt 0.947448 0.991438
vt 0.570677 0.545674
vt 0.570677 0.991438
vt 0.518074 0.414616
vt 0.029366 0.918033
vt 0.039699 0.393384
vt 0.667911 0.541315
vt 0.851567 0.966358
vt 0.851567 0.541315
vt 0.516889 0.474785
vt 0.538318 0.475736
vt 0.500572 0.513407
vt 0.287143 0.923970
vt 0.445347 0.560169
vt 0.358061 0.809770
vt 0.399600 0.955543
vt 0.399852 0.635812
vt 0.399852 0.840381
vt 0.407851 0.635812
vt 0.408103 0.955543
vt 0.407851 0.840381
vt 0.399600 0.487655
vt 0.526602 0.479723
vt 0.044031 0.921350
vt 0.429701 0.888580
vt 0.026343 0.898950
vt 0.528842 0.468696
vt 0.165665 0.467784
vt 0.538040 0.489859
vt 0.507780 0.937268
vt 0.516610 0.488908
vt 0.514802 0.580745
vt 0.531714 0.811082
vt 0.536231 0.581696
vt 0.510284 0.810131
vt 0.536231 0.581696
vt 0.531714 0.811082
vt 0.507780 0.937268
vt 0.538040 0.489859
vt 0.516610 0.488908
vt 0.845791 0.532839
vt 0.822819 0.796592
vt 0.932782 0.985757
vt 0.658928 0.686339
vt 0.862274 0.844431
vt 0.938120 0.542497
vt 0.932566 0.591488
vt 0.575126 0.948928
vt 0.575126 0.591488
vt 0.890209 0.522753
vt 0.846582 0.918727
vt 0.569751 0.995584
vt 0.630484 0.534505
vt 0.710330 0.848886
vt 0.934533 0.972749
vt 0.268750 0.942501
vt 0.214360 0.918033
vt 0.617399 0.518569
vt 0.020650 0.917646
vt 0.071302 0.518569
vt 0.071302 0.966358
vt 0.080662 0.966358
vt 0.617399 0.541315
vt 0.610124 0.550553
vt 0.033510 0.928904
vt 0.131136 0.969861
vt 0.422830 0.921739
vt 0.807468 0.742742
vt 0.539503 0.415567
vt 0.617399 0.487655
vt 0.528488 0.974880
vt 0.617399 0.955543
vt 0.507740 0.939264
vt 0.953035 0.563343
vt 0.518074 0.414616
vt 0.947448 0.545674
vt 0.507740 0.939264
vt 0.667911 0.966358
vt 0.446341 0.754090
vt 0.408103 0.487655
vt 0.163785 0.510551
vt 0.368006 0.899808
vt 0.529210 0.938219
vt 0.510284 0.810131
vt 0.514802 0.580745
vt 0.529210 0.938219
vt 0.575535 0.728699
vt 0.583082 0.988273
vt 0.932566 0.948928
vt 0.960846 0.750131
vt 0.601917 0.692622
vn 1.0000 0.0000 0.0000
vn 0.0000 0.0000 -1.0000
vn 0.0000 1.0000 0.0000
vn 0.0000 0.0000 1.0000
vn 0.0000 -1.0000 0.0000
vn -1.0000 0.0000 0.0000
vn -0.9650 0.2624 0.0000
vn 0.9650 0.2624 0.0000
vn 0.0000 0.3634 -0.9316
vn 0.0000 0.3634 0.9316
vn -0.4805 0.7337 0.4805
vn 0.4805 0.7337 -0.4805
vn -0.4950 0.7141 -0.4950
vn 0.4950 0.7141 0.4950
usemtl Material
s off
f 18/53/7 20/54/7 17/55/7
f 21/56/8 19/57/8 18/58/8
f 24/59/9 26/60/9 23/61/9
f 28/62/10 30/63/10 27/64/10
f 28/65/11 32/66/11 31/67/11
f 30/68/9 34/69/9 33/70/9
f 35/71/9 19/72/9 22/73/9
f 17/74/11 21/75/11 18/76/11
f 38/77/11 40/78/11 37/79/11
f 17/55/7 34/80/7 31/81/7
f 31/81/7 29/82/7 28/83/7
f 33/84/9 20/85/9 35/86/9
f 31/67/11 36/87/11 17/88/11
f 32/89/12 35/90/12 36/91/12
f 38/92/12 24/93/12 39/94/12
f 42/95/12 44/96/12 41/97/12
f 41/98/8 46/99/8 45/100/8
f 44/101/9 47/102/9 46/103/9
f 25/104/10 37/105/10 26/106/10
f 43/107/10 48/108/10 47/109/10
f 42/110/11 45/111/11 48/112/11
f 39/113/8 23/114/8 40/115/8
f 40/116/8 33/117/8 32/118/8
f 26/106/10 27/64/10 30/63/10
f 37/119/11 32/66/11 27/120/11
f 23/121/9 30/122/9 33/123/9
f 48/112/11 21/124/11 36/87/11
f 47/125/10 36/126/10 35/127/10
f 46/128/9 35/129/9 22/130/9
f 45/131/8 22/132/8 21/133/8
f 23/134/9 43/135/9 24/136/9
f 40/137/9 42/110/9 39/138/9
f 49/139/12 43/140/12 42/95/12
f 52/141/12 24/93/12 51/142/12
f 23/143/7 54/144/7 53/145/7
f 55/146/7 47/147/7 56/148/7
f 47/147/7 53/145/7 56/148/7
f 40/149/7 55/146/7 54/144/7
f 50/150/12 24/151/12 43/152/12
f 52/153/12 42/154/12 39/155/12
f 51/156/11 56/157/11 53/158/11
f 54/159/10 51/160/10 52/161/10
f 56/162/8 49/163/8 50/164/8
f 55/165/9 52/166/9 54/167/9
f 36/87/9 40/137/9 32/66/9
f 23/168/13 58/169/13 47/170/13
f 57/171/9 60/172/9 58/173/9
f 35/174/14 59/175/14 33/176/14
f 47/177/15 60/178/15 35/179/15
f 33/180/16 57/181/16 23/182/16
f 18/53/7 19/183/7 20/54/7
f 21/56/8 22/184/8 19/57/8
f 24/59/9 25/185/9 26/60/9
f 28/62/10 29/186/10 30/63/10
f 28/65/11 27/120/11 32/66/11
f 30/68/9 29/187/9 34/69/9
f 35/71/9 20/188/9 19/72/9
f 17/74/11 36/189/11 21/75/11
f 38/77/11 39/190/11 40/78/11
f 17/55/7 20/54/7 34/80/7
f 31/81/7 34/80/7 29/82/7
f 33/84/9 34/191/9 20/85/9
f 31/67/11 32/66/11 36/87/11
f 32/89/12 33/192/12 35/90/12
f 38/92/12 25/193/12 24/93/12
f 42/95/12 43/140/12 44/96/12
f 41/98/8 44/194/8 46/99/8
f 44/101/9 43/195/9 47/102/9
f 25/104/10 38/196/10 37/105/10
f 43/107/10 42/197/10 48/108/10
f 42/110/11 41/198/11 45/111/11
f 39/113/8 24/199/8 23/114/8
f 40/116/8 23/200/8 33/117/8
f 26/106/10 37/105/10 27/64/10
f 37/119/11 40/137/11 32/66/11
f 23/121/9 26/201/9 30/122/9
f 48/112/11 45/111/11 21/124/11
f 47/125/10 48/202/10 36/126/10
f 46/128/9 47/203/9 35/129/9
f 45/131/8 46/204/8 22/132/8
f 23/134/9 47/205/9 43/135/9
f 40/137/9 48/112/9 42/110/9
f 49/139/12 50/206/12 43/140/12
f 52/141/12 39/94/12 24/93/12
f 23/143/7 40/149/7 54/144/7
f 55/146/7 48/207/7 47/147/7
f 47/147/7 23/143/7 53/145/7
f 40/149/7 48/207/7 55/146/7
f 50/150/12 51/208/12 24/151/12
f 52/153/12 49/209/12 42/154/12
f 51/156/11 50/210/11 56/157/11
f 54/159/10 53/211/10 51/160/10
f 56/162/8 55/212/8 49/163/8
f 55/165/9 49/213/9 52/166/9
f 36/87/9 48/112/9 40/137/9
f 23/168/17 57/214/17 58/169/17
f 57/171/9 59/215/9 60/172/9
f 35/174/18 60/216/18 59/175/18
f 47/177/19 58/217/19 60/178/19
f 33/180/20 59/218/20 57/181/20
