# Blender v2.91.0 OBJ File: ''
# www.blender.org
mtllib ramp.mtl
o Cube.001
v -7.601025 0.359461 0.121857
v 0.210905 0.359460 -0.121856
v -7.601025 0.359461 -0.121856
v 0.210905 -0.359460 0.121856
v 0.210905 -0.359460 -0.121856
v 0.210905 0.359460 0.121856
v -7.601025 -0.359459 0.121857
v -7.601025 -0.359459 -0.121856
vt 0.525008 0.679186
vt 0.441659 0.407480
vt 0.347480 0.585008
vt 0.360225 0.423558
vt 0.539775 0.603109
vt 0.539775 0.423558
vt 0.589414 0.190474
vt 0.430586 0.809526
vt 0.819526 0.579414
vt 0.449620 0.172778
vt 0.503714 0.813889
vt 0.797222 0.466287
vt 0.424950 0.232808
vt 0.575050 0.767192
vt 0.767683 0.426720
vt 0.247209 0.535172
vt 0.519458 0.611494
vt 0.421494 0.437208
vt 0.619186 0.501659
vt 0.360225 0.603109
vt 0.200474 0.420586
vt 0.156111 0.520380
vt 0.232317 0.573280
vt 0.345172 0.709458
vn 0.0000 1.0000 0.0000
vn 1.0000 -0.0000 0.0000
vn 0.0000 0.0000 1.0000
vn -0.0000 -1.0000 0.0000
vn -0.0000 0.0000 -1.0000
vn -1.0000 0.0000 0.0000
usemtl Material
s 1
f 1/1/1 2/2/1 3/3/1
f 2/4/2 4/5/2 5/6/2
f 6/7/3 7/8/3 4/9/3
f 8/10/4 4/11/4 7/12/4
f 3/13/5 5/14/5 8/15/5
f 1/16/6 8/17/6 7/18/6
f 1/1/1 6/19/1 2/2/1
f 2/4/2 6/20/2 4/5/2
f 6/7/3 1/21/3 7/8/3
f 8/10/4 5/22/4 4/11/4
f 3/13/5 2/23/5 5/14/5
f 1/16/6 3/24/6 8/17/6
