# Blender v2.91.0 OBJ File: ''
# www.blender.org
mtllib sphere.mtl
o Cylinder
v -0.032949 0.128564 -0.001745
v 0.063821 0.128564 0.001745
v -0.032609 0.126642 -0.021251
v 0.064161 0.126642 -0.017761
v -0.032281 0.120952 -0.040008
v 0.064488 0.120952 -0.036517
v -0.031979 0.111711 -0.057294
v 0.064790 0.111711 -0.053803
v -0.031715 0.099274 -0.072445
v 0.065055 0.099274 -0.068955
v -0.031498 0.084121 -0.084880
v 0.065272 0.084121 -0.081389
v -0.031337 0.066832 -0.094119
v 0.065433 0.066832 -0.090629
v -0.031237 0.048073 -0.099809
v 0.065532 0.048073 -0.096318
v -0.031204 0.028564 -0.101730
v 0.065566 0.028564 -0.098240
v -0.031237 0.009055 -0.099809
v 0.065532 0.009055 -0.096318
v -0.031337 -0.009705 -0.094119
v 0.065433 -0.009705 -0.090629
v -0.031498 -0.026993 -0.084880
v 0.065272 -0.026993 -0.081389
v -0.031715 -0.042147 -0.072445
v 0.065055 -0.042147 -0.068955
v -0.031979 -0.054583 -0.057294
v 0.064790 -0.054583 -0.053803
v -0.032281 -0.063824 -0.040008
v 0.064488 -0.063824 -0.036517
v -0.032609 -0.069515 -0.021251
v 0.064161 -0.069515 -0.017761
v -0.032949 -0.071436 -0.001745
v 0.063821 -0.071436 0.001745
v -0.033290 -0.069515 0.017761
v 0.063480 -0.069515 0.021251
v -0.033617 -0.063824 0.036517
v 0.063153 -0.063824 0.040008
v -0.033919 -0.054583 0.053803
v 0.062851 -0.054583 0.057294
v -0.034183 -0.042147 0.068955
v 0.062587 -0.042147 0.072445
v -0.034400 -0.026993 0.081389
v 0.062369 -0.026993 0.084880
v -0.034561 -0.009705 0.090629
v 0.062208 -0.009705 0.094119
v -0.034661 0.009055 0.096318
v 0.062109 0.009055 0.099809
v -0.034694 0.028564 0.098240
v 0.062075 0.028564 0.101730
v -0.034661 0.048073 0.096318
v 0.062109 0.048073 0.099809
v -0.034561 0.066832 0.090629
v 0.062208 0.066832 0.094119
v -0.034400 0.084121 0.081389
v 0.062369 0.084121 0.084879
v -0.034183 0.099274 0.068955
v 0.062587 0.099274 0.072445
v -0.033919 0.111711 0.053803
v 0.062851 0.111711 0.057294
v -0.033617 0.120952 0.036517
v 0.063153 0.120952 0.040008
v -0.033290 0.126642 0.017761
v 0.063480 0.126642 0.021251
v -0.136044 -0.110971 0.139535
v -0.136044 0.168099 0.139535
v -0.136044 -0.110971 -0.139535
v -0.136044 0.168099 -0.139535
v -0.000542 -0.110971 0.139535
v -0.000542 0.168099 0.139535
v -0.000542 -0.110971 -0.139535
v -0.000542 0.168099 -0.139535
vt 0.306737 0.724821
vt 0.434601 0.701434
vt 0.306737 0.699055
vt 0.434601 0.676659
vt 0.306737 0.674280
vt 0.434601 0.653826
vt 0.306737 0.651447
vt 0.434601 0.633812
vt 0.306737 0.631434
vt 0.654620 0.923907
vt 0.782288 0.903894
vt 0.654404 0.903894
vt 0.782127 0.881061
vt 0.654243 0.881061
vt 0.782028 0.856286
vt 0.654143 0.856286
vt 0.781994 0.830520
vt 0.654110 0.830520
vt 0.654143 0.804755
vt 0.782028 0.804755
vt 0.654243 0.779979
vt 0.782127 0.779979
vt 0.654404 0.757146
vt 0.782288 0.757146
vt 0.654620 0.737133
vt 0.306737 0.818208
vt 0.178873 0.800574
vt 0.178873 0.820587
vt 0.306737 0.798195
vt 0.178873 0.777740
vt 0.306737 0.775362
vt 0.178873 0.752965
vt 0.306737 0.750586
vt 0.178873 0.727200
vt 0.306737 0.724821
vt 0.178873 0.701434
vt 0.306737 0.699055
vt 0.178873 0.676659
vt 0.306737 0.674280
vt 0.178873 0.653826
vt 0.306737 0.651447
vt 0.178873 0.633812
vt 0.526225 0.737133
vt 0.653893 0.757146
vt 0.654110 0.737133
vt 0.526009 0.757146
vt 0.653732 0.779979
vt 0.525848 0.779979
vt 0.653633 0.804755
vt 0.525748 0.804755
vt 0.653600 0.830520
vt 0.525748 0.856286
vt 0.653633 0.856286
vt 0.525848 0.881061
vt 0.653732 0.881061
vt 0.526009 0.903894
vt 0.653893 0.903894
vt 0.526225 0.923907
vt 0.654110 0.923907
vt 0.306737 0.818208
vt 0.434601 0.800573
vt 0.306737 0.798195
vt 0.434601 0.777740
vt 0.306737 0.775362
vt 0.510756 0.562257
vt 0.456542 0.383525
vt 0.277816 0.437743
vt 0.434601 0.752965
vt 0.306737 0.750586
vt 0.434601 0.727200
vt 0.257806 0.538338
vt 0.169766 0.373617
vt 0.005051 0.461662
vt 0.737105 0.000000
vt 0.368552 0.368566
vt 0.737105 0.368566
vt 0.178873 0.631434
vt 0.000000 1.000000
vt 0.178873 1.000000
vt 0.368552 0.000000
vt 0.000000 0.368566
vt 0.368552 0.368566
vt 0.915978 0.000000
vt 0.915978 0.368566
vt 0.883629 0.737133
vt 0.704672 0.368566
vt 0.704672 0.737133
vt 0.525715 0.368566
vt 0.704672 0.737133
vt 0.704672 0.368566
vt 0.782505 0.923907
vt 0.782505 0.737133
vt 0.306737 0.631434
vt 0.525715 0.830520
vt 0.434601 0.820587
vt 0.332031 0.616475
vt 0.355949 0.626383
vt 0.381341 0.631434
vt 0.407230 0.631434
vt 0.432622 0.626383
vt 0.456540 0.616475
vt 0.478066 0.602091
vt 0.496373 0.583784
vt 0.520664 0.538338
vt 0.525715 0.512945
vt 0.525715 0.487055
vt 0.520664 0.461662
vt 0.510757 0.437743
vt 0.496374 0.416216
vt 0.478068 0.397909
vt 0.432623 0.373617
vt 0.407232 0.368566
vt 0.381343 0.368566
vt 0.355951 0.373617
vt 0.332032 0.383525
vt 0.310506 0.397909
vt 0.292199 0.416216
vt 0.267909 0.461662
vt 0.262858 0.487055
vt 0.262857 0.512945
vt 0.267908 0.538338
vt 0.277815 0.562257
vt 0.292198 0.583784
vt 0.310505 0.602091
vt 0.093092 0.626383
vt 0.118483 0.631434
vt 0.144372 0.631434
vt 0.169764 0.626383
vt 0.193683 0.616475
vt 0.215209 0.602091
vt 0.233515 0.583784
vt 0.247899 0.562257
vt 0.262857 0.512945
vt 0.262857 0.487055
vt 0.257807 0.461662
vt 0.247900 0.437743
vt 0.233517 0.416216
vt 0.215210 0.397909
vt 0.193684 0.383525
vt 0.144374 0.368567
vt 0.118485 0.368567
vt 0.093093 0.373617
vt 0.069175 0.383525
vt 0.047649 0.397909
vt 0.029342 0.416216
vt 0.014959 0.437743
vt 0.000000 0.487055
vt 0.000000 0.512945
vt 0.005051 0.538338
vt 0.014958 0.562257
vt 0.029341 0.583784
vt 0.047647 0.602091
vt 0.069173 0.616475
vt 0.368552 0.000000
vt 0.000000 0.631434
vt 0.000000 0.000000
vt 0.883629 0.368566
vt 0.525715 0.737133
vn 0.0035 0.9952 -0.0980
vn 0.0105 0.9569 -0.2901
vn 0.0170 0.8819 -0.4712
vn 0.0229 0.7730 -0.6340
vn 0.0279 0.6343 -0.7726
vn 0.0318 0.4713 -0.8814
vn 0.0345 0.2902 -0.9563
vn 0.0359 0.0980 -0.9945
vn 0.0359 -0.0980 -0.9945
vn 0.0345 -0.2902 -0.9563
vn 0.0318 -0.4713 -0.8814
vn 0.0279 -0.6343 -0.7726
vn 0.0229 -0.7730 -0.6340
vn 0.0170 -0.8819 -0.4712
vn 0.0105 -0.9569 -0.2901
vn 0.0035 -0.9952 -0.0980
vn -0.0035 -0.9952 0.0980
vn -0.0105 -0.9569 0.2901
vn -0.0170 -0.8819 0.4712
vn -0.0229 -0.7730 0.6340
vn -0.0279 -0.6343 0.7726
vn -0.0318 -0.4713 0.8814
vn -0.0345 -0.2902 0.9563
vn -0.0359 -0.0980 0.9945
vn -0.0359 0.0980 0.9945
vn -0.0345 0.2902 0.9563
vn -0.0318 0.4713 0.8814
vn -0.0279 0.6343 0.7726
vn -0.0229 0.7730 0.6340
vn -0.0170 0.8819 0.4712
vn 0.9998 0.0000 0.0175
vn -0.0105 0.9569 0.2901
vn -0.0035 0.9952 0.0980
vn -0.9998 0.0000 -0.0175
vn -1.0000 0.0000 -0.0000
vn 0.0000 0.0000 -1.0000
vn 1.0000 -0.0000 0.0000
vn -0.0000 0.0000 1.0000
vn -0.0000 -1.0000 -0.0000
vn 0.0000 1.0000 -0.0000
usemtl Material
s off
f 1/1/1 4/2/1 3/3/1
f 3/3/2 6/4/2 5/5/2
f 5/5/3 8/6/3 7/7/3
f 7/7/4 10/8/4 9/9/4
f 9/10/5 12/11/5 11/12/5
f 11/12/6 14/13/6 13/14/6
f 13/14/7 16/15/7 15/16/7
f 15/16/8 18/17/8 17/18/8
f 18/17/9 19/19/9 17/18/9
f 20/20/10 21/21/10 19/19/10
f 22/22/11 23/23/11 21/21/11
f 24/24/12 25/25/12 23/23/12
f 26/26/13 27/27/13 25/28/13
f 28/29/14 29/30/14 27/27/14
f 30/31/15 31/32/15 29/30/15
f 32/33/16 33/34/16 31/32/16
f 34/35/17 35/36/17 33/34/17
f 36/37/18 37/38/18 35/36/18
f 38/39/19 39/40/19 37/38/19
f 40/41/20 41/42/20 39/40/20
f 42/43/21 43/44/21 41/45/21
f 44/46/22 45/47/22 43/44/22
f 46/48/23 47/49/23 45/47/23
f 48/50/24 49/51/24 47/49/24
f 49/51/25 52/52/25 51/53/25
f 51/53/26 54/54/26 53/55/26
f 53/55/27 56/56/27 55/57/27
f 55/57/28 58/58/28 57/59/28
f 57/60/29 60/61/29 59/62/29
f 59/62/30 62/63/30 61/64/30
f 54/65/31 38/66/31 22/67/31
f 61/64/32 64/68/32 63/69/32
f 63/69/33 2/70/33 1/1/33
f 15/71/34 31/72/34 47/73/34
f 66/74/35 67/75/35 65/76/35
f 68/77/36 71/78/36 67/79/36
f 72/80/37 69/81/37 71/82/37
f 70/83/38 65/76/38 69/84/38
f 71/85/39 65/86/39 67/87/39
f 68/88/40 70/89/40 72/90/40
f 1/1/1 2/70/1 4/2/1
f 3/3/2 4/2/2 6/4/2
f 5/5/3 6/4/3 8/6/3
f 7/7/4 8/6/4 10/8/4
f 9/10/5 10/91/5 12/11/5
f 11/12/6 12/11/6 14/13/6
f 13/14/7 14/13/7 16/15/7
f 15/16/8 16/15/8 18/17/8
f 18/17/9 20/20/9 19/19/9
f 20/20/10 22/22/10 21/21/10
f 22/22/11 24/24/11 23/23/11
f 24/24/12 26/92/12 25/25/12
f 26/26/13 28/29/13 27/27/13
f 28/29/14 30/31/14 29/30/14
f 30/31/15 32/33/15 31/32/15
f 32/33/16 34/35/16 33/34/16
f 34/35/17 36/37/17 35/36/17
f 36/37/18 38/39/18 37/38/18
f 38/39/19 40/41/19 39/40/19
f 40/41/20 42/93/20 41/42/20
f 42/43/21 44/46/21 43/44/21
f 44/46/22 46/48/22 45/47/22
f 46/48/23 48/50/23 47/49/23
f 48/50/24 50/94/24 49/51/24
f 49/51/25 50/94/25 52/52/25
f 51/53/26 52/52/26 54/54/26
f 53/55/27 54/54/27 56/56/27
f 55/57/28 56/56/28 58/58/28
f 57/60/29 58/95/29 60/61/29
f 59/62/30 60/61/30 62/63/30
f 6/96/31 4/97/31 2/98/31
f 2/98/31 64/99/31 6/96/31
f 64/99/31 62/100/31 6/96/31
f 62/100/31 60/101/31 58/102/31
f 58/102/31 56/103/31 54/65/31
f 54/65/31 52/104/31 50/105/31
f 50/105/31 48/106/31 46/107/31
f 46/107/31 44/108/31 38/66/31
f 44/108/31 42/109/31 38/66/31
f 42/109/31 40/110/31 38/66/31
f 38/66/31 36/111/31 34/112/31
f 34/112/31 32/113/31 30/114/31
f 30/114/31 28/115/31 26/116/31
f 26/116/31 24/117/31 22/67/31
f 22/67/31 20/118/31 18/119/31
f 18/119/31 16/120/31 22/67/31
f 16/120/31 14/121/31 22/67/31
f 14/121/31 12/122/31 10/123/31
f 10/123/31 8/124/31 6/96/31
f 62/100/31 58/102/31 6/96/31
f 58/102/31 54/65/31 6/96/31
f 54/65/31 50/105/31 38/66/31
f 50/105/31 46/107/31 38/66/31
f 38/66/31 34/112/31 22/67/31
f 34/112/31 30/114/31 22/67/31
f 30/114/31 26/116/31 22/67/31
f 14/121/31 10/123/31 22/67/31
f 10/123/31 6/96/31 22/67/31
f 6/96/31 54/65/31 22/67/31
f 61/64/32 62/63/32 64/68/32
f 63/69/33 64/68/33 2/70/33
f 63/125/34 1/126/34 3/127/34
f 3/127/34 5/128/34 7/129/34
f 7/129/34 9/130/34 11/131/34
f 11/131/34 13/132/34 7/129/34
f 13/132/34 15/71/34 7/129/34
f 15/71/34 17/133/34 19/134/34
f 19/134/34 21/135/34 15/71/34
f 21/135/34 23/136/34 15/71/34
f 23/136/34 25/137/34 31/72/34
f 25/137/34 27/138/34 31/72/34
f 27/138/34 29/139/34 31/72/34
f 31/72/34 33/140/34 35/141/34
f 35/141/34 37/142/34 39/143/34
f 39/143/34 41/144/34 43/145/34
f 43/145/34 45/146/34 47/73/34
f 47/73/34 49/147/34 51/148/34
f 51/148/34 53/149/34 55/150/34
f 55/150/34 57/151/34 63/125/34
f 57/151/34 59/152/34 63/125/34
f 59/152/34 61/153/34 63/125/34
f 63/125/34 3/127/34 7/129/34
f 31/72/34 35/141/34 47/73/34
f 35/141/34 39/143/34 47/73/34
f 39/143/34 43/145/34 47/73/34
f 47/73/34 51/148/34 63/125/34
f 51/148/34 55/150/34 63/125/34
f 63/125/34 7/129/34 15/71/34
f 15/71/34 23/136/34 31/72/34
f 63/125/34 15/71/34 47/73/34
f 66/74/35 68/154/35 67/75/35
f 68/77/36 72/155/36 71/78/36
f 72/80/37 70/156/37 69/81/37
f 70/83/38 66/74/38 65/76/38
f 71/85/39 69/157/39 65/86/39
f 68/88/40 66/158/40 70/89/40
